<?xml version="1.0" encoding="UTF-8"?>
<svg id="Camada_1" data-name="Camada 1" xmlns="http://www.w3.org/2000/svg" viewBox="0 0 2441.76 540">
  <defs>
    <style>
      .cls-1 {
        fill: #fff;
        stroke-width: 0px;
      }
    </style>
  </defs>
  <path class="cls-1" d="m869.37,138.22c0,12.72-10.32,23.04-23.04,23.04s-23.06-10.32-23.06-23.04,10.32-23.06,23.06-23.06,23.04,10.32,23.04,23.06Z"/>
  <rect class="cls-1" x="830.23" y="185.8" width="32.18" height="218.29"/>
  <path class="cls-1" d="m441.58,373.69c21.3,21.34,46.88,31.99,76.66,31.99s55.97-10.87,77.44-32.6c21.32-21.72,32-48.02,32-78.87s-10.69-56.74-32-78.45c-21.47-21.86-47.28-32.78-77.44-32.78s-55.36,10.64-76.66,31.99v-29.78h-32.82v288.93h32.82v-100.42Zm22.53-134.79c14.88-15.31,32.91-22.92,54.14-22.92s39.14,7.62,54.3,22.92c14.89,15.29,22.33,33.73,22.33,55.31s-7.44,40.19-22.33,55.73c-15.16,15.31-33.26,22.96-54.3,22.96s-39.26-7.65-54.14-22.96c-15.02-15.54-22.53-34.14-22.53-55.73s7.5-40.02,22.53-55.31Z"/>
  <g>
    <polygon class="cls-1" points="693.5 185.8 661.89 185.8 661.89 217.98 693.5 217.98 693.5 371.66 725.67 404.09 725.67 217.98 725.67 185.8 725.67 115.16 693.5 115.16 693.5 185.8"/>
    <path class="cls-1" d="m779.22,404.09h-53.32c-17.92,0-32.45-14.53-32.45-32.43h85.77v32.43Z"/>
    <path class="cls-1" d="m725.67,217.98h52.11v-32.19h-19.93c-17.77,0-32.19,14.41-32.19,32.19h0Z"/>
  </g>
  <path class="cls-1" d="m75.86,265.83c0-19.81,3.77-38.5,11.29-56.07,7.55-17.57,17.87-32.93,30.98-46.05,13.09-13.09,28.45-23.44,46.02-30.96,17.57-7.55,36.26-11.29,56.1-11.29s38.83,3.74,56.28,11.29c17.42,7.52,32.69,17.87,45.81,30.96,13.12,13.12,23.44,28.48,30.98,46.05,7.52,17.57,11.29,36.26,11.29,56.07s-3.77,38.85-11.29,56.31c-7.55,17.42-17.87,32.69-30.98,45.81-13.12,13.12-28.39,23.44-45.81,30.98-17.45,7.52-36.2,11.29-56.28,11.29s-38.53-3.77-56.1-11.29c-17.57-7.55-32.93-17.86-46.02-30.98-13.12-13.12-23.44-28.39-30.98-45.81-7.52-17.45-11.29-36.2-11.29-56.31Zm37.65,0c0,14.8,2.8,28.83,8.37,42.07,5.6,13.27,13.27,24.82,23.02,34.73,9.76,9.9,21.14,17.72,34.11,23.44,12.97,5.72,26.71,8.58,41.24,8.58s28.6-2.86,41.42-8.58c12.82-5.72,24.12-13.53,33.9-23.44,9.76-9.91,17.42-21.46,23.02-34.73,5.57-13.24,8.37-27.27,8.37-42.07s-2.8-28.8-8.37-42.04c-5.6-13.27-13.27-24.85-23.02-34.76-9.79-9.91-21.08-17.72-33.9-23.44-12.82-5.72-26.65-8.58-41.42-8.58s-28.27,2.86-41.24,8.58c-12.97,5.72-24.35,13.53-34.11,23.44-9.76,9.9-17.42,21.49-23.02,34.76-5.57,13.24-8.37,27.27-8.37,42.04Z"/>
  <g>
    <path class="cls-1" d="m902.79,181.34h36.65l53.39,141.84,69.32-145.82,69.32,145.82,53.39-141.84h36.65l-89.24,223.11-70.12-151.4-70.92,151.4-88.45-223.11Z"/>
    <path class="cls-1" d="m1228.69,290.1c0-61.36,51-112.75,113.95-112.75s113.15,51.4,113.15,112.75-51,114.34-113.15,114.34-113.95-51.4-113.95-114.34Zm192.83,0c0-43.03-35.86-79.28-78.89-79.28s-79.68,36.26-79.68,79.28,35.46,80.88,79.68,80.88,78.89-36.26,78.89-80.88Z"/>
    <path class="cls-1" d="m1482.07,400.46v-219.13h33.47v29.81h.13c29.07-30.54,67.62-30.54,67.62-30.54v30.54c-41.44,6.54-67.74,33.54-67.74,74.58v114.74h-33.47Z"/>
    <path class="cls-1" d="m1762.54,400.46l-81.67-96.02-30.68,30.28v65.74h-33.47V111.61h33.47v179.68l103.99-101.99h42.63l-92.43,91.64,99.2,119.52h-41.04Z"/>
  </g>
  <g>
    <path class="cls-1" d="m2136.85,151.44c0-48.24-39.11-87.36-87.36-87.36s-87.35,39.11-87.35,87.36,39.11,87.35,87.35,87.35h0v-87.35h87.36Z"/>
    <path class="cls-1" d="m2286.56,238.79c48.25,0,87.36-39.1,87.36-87.35s-39.11-87.36-87.36-87.36-87.35,39.11-87.35,87.36h87.35v87.35Z"/>
    <path class="cls-1" d="m2286.56,301.16v87.36h-87.35c0,48.25,39.11,87.35,87.35,87.35s87.36-39.1,87.36-87.35-39.11-87.35-87.36-87.36Z"/>
    <circle class="cls-1" cx="2049.5" cy="388.51" r="87.35" transform="translate(1200.5 2293.92) rotate(-76.72)"/>
  </g>
</svg>